<svg width="9" height="11" viewBox="0 0 9 11" fill="none" xmlns="http://www.w3.org/2000/svg">
<path d="M2.88889 2.87241C2.65447 3.10683 2.33653 3.23852 2.005 3.23852C1.67348 3.23852 1.35554 3.10683 1.12112 2.87241C0.886701 2.63799 0.755005 2.32005 0.755005 1.98853C0.755005 1.657 0.886701 1.33906 1.12112 1.10464C1.35554 0.870221 1.67348 0.738525 2.005 0.738525C2.33653 0.738525 2.65447 0.870221 2.88889 1.10464C3.12331 1.33906 3.255 1.657 3.255 1.98853C3.255 2.32005 3.12331 2.63799 2.88889 2.87241Z" fill="#7F977B"/>
<path d="M7.88889 6.61991C8.12331 6.38549 8.255 6.06755 8.255 5.73602C8.255 5.4045 8.12331 5.08656 7.88889 4.85214C7.65447 4.61772 7.33653 4.48602 7.005 4.48602C6.67348 4.48602 6.35554 4.61772 6.12112 4.85214C5.8867 5.08656 5.755 5.4045 5.755 5.73602C5.755 6.06755 5.8867 6.38549 6.12112 6.61991C6.35554 6.85433 6.67348 6.98602 7.005 6.98602C7.33653 6.98602 7.65447 6.85433 7.88889 6.61991Z" fill="#7F977B"/>
<path d="M2.88889 10.3674C2.65447 10.6018 2.33653 10.7335 2.005 10.7335C1.67348 10.7335 1.35554 10.6018 1.12112 10.3674C0.886701 10.133 0.755005 9.81505 0.755005 9.48353C0.755005 9.152 0.886701 8.83406 1.12112 8.59964C1.35554 8.36522 1.67348 8.23353 2.005 8.23353C2.33653 8.23353 2.65447 8.36522 2.88889 8.59964C3.12331 8.83406 3.255 9.152 3.255 9.48353C3.255 9.81505 3.12331 10.133 2.88889 10.3674Z" fill="#7F977B"/>
</svg>
