<svg width="23" height="27" viewBox="0 0 23 27" fill="none" xmlns="http://www.w3.org/2000/svg">
<path d="M1.005 4.32603C1.005 2.45478 2.5425 0.819778 4.53 1.01603C11.0017 1.65748 16.9975 4.70308 21.3325 9.55103C22.67 11.0423 22.2538 13.256 20.7338 14.3573C18.7563 15.7923 15.8088 17.9285 14.13 19.1485C14.1275 19.6948 14.1275 20.0498 14.1287 20.5135V21.2985C14.1289 21.6183 14.059 21.9342 13.9239 22.224C13.7888 22.5138 13.5918 22.7705 13.3468 22.9759C13.1018 23.1814 12.8147 23.3306 12.5058 23.4131C12.1968 23.4957 11.8736 23.5094 11.5588 23.4535C11.3038 24.486 10.3937 25.3623 9.12875 25.3623C8.25375 25.3623 7.55125 24.9435 7.1175 24.3435L5.46125 25.5398C3.60125 26.8823 0.99875 25.5535 1 23.2573L1.005 4.32603ZM4.34625 2.88228C3.585 2.80728 2.87875 3.43603 2.87875 4.32603V4.97603C9.44625 5.25228 15.2675 8.41228 19.11 13.2185L19.6338 12.8385C20.3563 12.3135 20.4488 11.3723 19.9363 10.801C15.9138 6.30348 10.3508 3.47823 4.34625 2.88353V2.88228ZM2.875 23.2573C2.875 24.0223 3.7425 24.466 4.3625 24.0173L7.0225 22.0998C7.16265 21.9989 7.32792 21.9388 7.50009 21.9259C7.67226 21.913 7.84464 21.9479 7.99823 22.0268C8.15181 22.1057 8.28064 22.2254 8.3705 22.3728C8.46037 22.5203 8.50777 22.6896 8.5075 22.8623C8.5075 23.1998 8.76875 23.4873 9.12875 23.4873C9.21117 23.4881 9.29294 23.4725 9.36928 23.4414C9.44563 23.4104 9.51502 23.3644 9.57342 23.3062C9.63183 23.2481 9.67807 23.1788 9.70946 23.1026C9.74085 23.0264 9.75675 22.9447 9.75625 22.8623V21.2973C9.75625 21.0486 9.85502 20.8102 10.0308 20.6344C10.2067 20.4586 10.4451 20.3598 10.6938 20.3598C10.9424 20.3598 11.1808 20.4586 11.3567 20.6344C11.5325 20.8102 11.6313 21.0486 11.6313 21.2973C11.6313 21.4723 11.77 21.6098 11.9412 21.6098C12.0241 21.6098 12.1036 21.5769 12.1622 21.5182C12.2208 21.4596 12.2537 21.3802 12.2537 21.2973V20.5198C12.2525 19.9323 12.2513 19.5098 12.26 18.6585C12.2612 18.5121 12.2966 18.368 12.3634 18.2378C12.4303 18.1076 12.5267 17.9948 12.645 17.9085C13.7725 17.0885 15.765 15.6435 17.59 14.321C15.8078 12.1038 13.5741 10.2913 11.0375 9.00379C8.50082 7.71629 5.71923 6.9833 2.8775 6.85353L2.875 23.2573Z" stroke="#7F977B" stroke-width="0.4"/>
</svg>
